<?xml version="1.0" encoding="UTF-8"?>
<svg width="400" height="300" viewBox="0 0 400 300" fill="none" xmlns="http://www.w3.org/2000/svg">
  <!-- Laptop Base -->
  <path d="M50 250H350L380 280H20L50 250Z" fill="#2D3748"/>
  
  <!-- Laptop Screen -->
  <rect x="50" y="50" width="300" height="200" rx="10" fill="#4A5568"/>
  <rect x="60" y="60" width="280" height="180" rx="5" fill="#EDF2F7"/>
  
  <!-- Screen Content -->
  <rect x="80" y="80" width="120" height="60" rx="4" fill="#FCD34D"/>
  <rect x="80" y="150" width="240" height="10" rx="2" fill="#E5E7EB"/>
  <rect x="80" y="170" width="180" height="10" rx="2" fill="#E5E7EB"/>
  <rect x="80" y="190" width="210" height="10" rx="2" fill="#E5E7EB"/>
  
  <!-- Graph -->
  <path d="M220 100L240 90L260 110L280 85L300 95" stroke="#F97316" stroke-width="2"/>
  <circle cx="220" cy="100" r="3" fill="#F97316"/>
  <circle cx="240" cy="90" r="3" fill="#F97316"/>
  <circle cx="260" cy="110" r="3" fill="#F97316"/>
  <circle cx="280" cy="85" r="3" fill="#F97316"/>
  <circle cx="300" cy="95" r="3" fill="#F97316"/>
</svg> 